<svg width="32" height="32" viewBox="0 0 32 32" fill="none" xmlns="http://www.w3.org/2000/svg">
<g clip-path="url(#clip0_5_14)">
<path d="M16 0C7.164 0 0 7.164 0 16C0 22.964 4.456 28.872 10.6667 31.0707V20.4773C8.37333 19.8813 6.66667 17.8107 6.66667 15.3333V10.6667C6.66667 9.93067 7.264 9.33333 8 9.33333C8.736 9.33333 9.33333 9.93067 9.33333 10.6667V15.3333C9.33333 16.316 9.87333 17.1667 10.6667 17.6293V10.6667C10.6667 9.93067 11.264 9.33333 12 9.33333C12.736 9.33333 13.3333 9.93067 13.3333 10.6667V17.6293C14.1267 17.1667 14.6667 16.316 14.6667 15.3333V10.6667C14.6667 9.93067 15.264 9.33333 16 9.33333C16.736 9.33333 17.3333 9.93067 17.3333 10.6667V15.3333C17.3333 17.8107 15.6267 19.8813 13.3333 20.4773V31.76C14.2027 31.9067 15.0893 32 16 32C17.8733 32 19.6627 31.6613 21.3333 31.0707V25.0587C19.2947 22.5773 18.6173 20.0507 18.6693 17.776C18.8307 13.6733 20.8907 10.776 22.144 9.64C22.8573 8.97733 23.9947 9.47733 24 10.316V29.8427C28.7773 27.0747 32 21.92 32 16.0013C32 7.164 24.836 0 16 0Z" fill="#FF6B6B"/>
</g>
<defs>
<clipPath id="clip0_5_14">
<rect width="32" height="32" fill="white"/>
</clipPath>
</defs>
</svg>
