<svg width="24" height="32" viewBox="0 0 24 32" fill="none" xmlns="http://www.w3.org/2000/svg">
<path d="M24 32H21.3333V25.276C21.3323 24.2307 20.9165 23.2284 20.1774 22.4893C19.4382 21.7501 18.436 21.3344 17.3907 21.3333H6.60933C5.564 21.3344 4.56178 21.7501 3.82262 22.4893C3.08345 23.2284 2.66773 24.2307 2.66667 25.276V32H0V25.276C0.0021171 23.5237 0.699135 21.8439 1.93817 20.6048C3.1772 19.3658 4.85708 18.6688 6.60933 18.6667H17.3907C19.1429 18.6688 20.8228 19.3658 22.0618 20.6048C23.3009 21.8439 23.9979 23.5237 24 25.276V32Z" fill="#FF6B6B"/>
<path d="M12 16C10.4178 16 8.87103 15.5308 7.55544 14.6518C6.23985 13.7727 5.21447 12.5233 4.60897 11.0615C4.00347 9.59966 3.84504 7.99113 4.15372 6.43928C4.4624 4.88743 5.22433 3.46197 6.34315 2.34315C7.46197 1.22433 8.88743 0.462403 10.4393 0.153721C11.9911 -0.15496 13.5997 0.00346629 15.0615 0.608967C16.5233 1.21447 17.7727 2.23985 18.6518 3.55544C19.5308 4.87103 20 6.41775 20 8C19.9979 10.1211 19.1544 12.1547 17.6545 13.6545C16.1547 15.1544 14.1211 15.9979 12 16ZM12 2.66667C10.9452 2.66667 9.91403 2.97946 9.03696 3.5655C8.1599 4.15153 7.47631 4.98449 7.07265 5.95903C6.66898 6.93357 6.56336 8.00592 6.76915 9.04049C6.97494 10.0751 7.48289 11.0254 8.22877 11.7712C8.97465 12.5171 9.92496 13.0251 10.9595 13.2309C11.9941 13.4366 13.0664 13.331 14.041 12.9274C15.0155 12.5237 15.8485 11.8401 16.4345 10.963C17.0205 10.086 17.3333 9.05484 17.3333 8C17.3333 6.58552 16.7714 5.22896 15.7712 4.22877C14.771 3.22857 13.4145 2.66667 12 2.66667Z" fill="#FF6B6B"/>
</svg>
