<svg width="0" height="0" class="hidden">
  <symbol fill="none" xmlns="http://www.w3.org/2000/svg" viewBox="0 0 32 32" id="check">
    <path d="M10.3323 32C9.42391 32.0005 8.55276 31.5004 7.911 30.6099L0.590748 20.4732C-0.196916 19.3817 -0.196916 17.6124 0.590748 16.521C1.37866 15.4299 2.65587 15.4299 3.44379 16.521L10.3323 26.0633L28.5562 0.81834C29.3441 -0.27278 30.6213 -0.27278 31.4093 0.81834C32.1969 1.90981 32.1969 3.67908 31.4093 4.77055L12.7535 30.6099C12.1117 31.5004 11.2406 32.0005 10.3323 32Z" fill="#4CAF50"></path>
  </symbol>
  <symbol fill="none" xmlns="http://www.w3.org/2000/svg" viewBox="0 0 32 32" id="clock">
    <g clip-path="url(#clip0_9_12)">
      <path d="M18.0001 2.82V2C18.0001 1.46957 17.7894 0.960859 17.4143 0.585786C17.0392 0.210714 16.5305 0 16.0001 0C15.4697 0 14.961 0.210714 14.5859 0.585786C14.2108 0.960859 14.0001 1.46957 14.0001 2V2.82C11.4566 3.16345 9.04824 4.17027 7.01707 5.73928C4.9859 7.3083 3.40344 9.38426 2.42869 11.7586C1.45394 14.1329 1.12124 16.7219 1.46401 19.2655C1.80679 21.8091 2.81296 24.2177 4.38144 26.2493C3.82937 26.7031 3.38801 27.2767 3.0909 27.9266C2.79378 28.5765 2.64873 29.2856 2.66677 30C2.66677 30.5304 2.87748 31.0391 3.25256 31.4142C3.62763 31.7893 4.13634 32 4.66677 32C5.1972 32 5.70591 31.7893 6.08098 31.4142C6.45606 31.0391 6.66677 30.5304 6.66677 30C6.64639 29.8019 6.69586 29.6028 6.80663 29.4373C6.9174 29.2717 7.08251 29.1501 7.27344 29.0933C9.79142 30.9788 12.8524 31.9978 15.9981 31.9978C19.1438 31.9978 22.2048 30.9788 24.7228 29.0933C24.9144 29.1493 25.0805 29.2707 25.192 29.4363C25.3036 29.6019 25.3536 29.8013 25.3334 30C25.3334 30.5304 25.5442 31.0391 25.9192 31.4142C26.2943 31.7893 26.803 32 27.3334 32C27.8639 32 28.3726 31.7893 28.7477 31.4142C29.1227 31.0391 29.3334 30.5304 29.3334 30C29.3515 29.2856 29.2064 28.5765 28.9093 27.9266C28.6122 27.2767 28.1708 26.7031 27.6188 26.2493C29.1872 24.2177 30.1934 21.8091 30.5362 19.2655C30.879 16.7219 30.5463 14.1329 29.5715 11.7586C28.5968 9.38426 27.0143 7.3083 24.9831 5.73928C22.952 4.17027 20.5436 3.16345 18.0001 2.82ZM5.33344 17.3333C5.33344 15.2237 5.95903 13.1614 7.13109 11.4073C8.30316 9.65313 9.96907 8.28595 11.9181 7.47862C13.8672 6.67128 16.0119 6.46005 18.0811 6.87162C20.1502 7.2832 22.0508 8.2991 23.5426 9.79086C25.0343 11.2826 26.0502 13.1832 26.4618 15.2524C26.8734 17.3215 26.6622 19.4662 25.8548 21.4153C25.0475 23.3644 23.6803 25.0303 21.9262 26.2023C20.1721 27.3744 18.1098 28 16.0001 28C13.1721 27.9968 10.4608 26.872 8.46114 24.8723C6.46144 22.8726 5.33661 20.1613 5.33344 17.3333Z" fill="#FF6B6B"></path>
      <path d="M26 -5.94067e-06C25.4696 -5.94067e-06 24.9609 0.210708 24.5858 0.58578C24.2107 0.960853 24 1.46956 24 1.99999C24 2.53043 24.2107 3.03913 24.5858 3.41421C24.9609 3.78928 25.4696 3.99999 26 3.99999C26.2655 3.97934 26.5322 4.01737 26.7814 4.11138C27.0305 4.20538 27.2559 4.35306 27.4415 4.54393C27.6272 4.73481 27.7686 4.9642 27.8556 5.21584C27.9427 5.46748 27.9733 5.7352 27.9453 5.99999C27.9453 6.53043 28.156 7.03914 28.5311 7.41421C28.9062 7.78928 29.4149 7.99999 29.9453 7.99999C30.4758 7.99999 30.9845 7.78928 31.3595 7.41421C31.7346 7.03914 31.9453 6.53043 31.9453 5.99999C31.9762 5.20843 31.844 4.41897 31.5568 3.68067C31.2697 2.94237 30.8338 2.27101 30.2762 1.7083C29.7187 1.1456 29.0513 0.703569 28.3157 0.40969C27.58 0.11581 26.7918 -0.0236438 26 -5.94067e-06Z" fill="#EE5A52"></path>
      <path d="M4.05469 5.99999C4.02669 5.7352 4.05731 5.46748 4.14438 5.21584C4.23144 4.9642 4.37282 4.73481 4.55848 4.54393C4.74413 4.35306 4.96952 4.20538 5.21865 4.11138C5.46778 4.01737 5.73455 3.97934 6.00002 3.99999C6.53045 3.99999 7.03916 3.78928 7.41423 3.41421C7.78931 3.03913 8.00002 2.53043 8.00002 1.99999C8.00002 1.46956 7.78931 0.960853 7.41423 0.58578C7.03916 0.210708 6.53045 -5.94067e-06 6.00002 -5.94067e-06C5.2082 -0.0236438 4.41998 0.11581 3.68434 0.40969C2.9487 0.703569 2.28136 1.1456 1.72378 1.7083C1.1662 2.27101 0.730304 2.94237 0.44317 3.68067C0.156035 4.41897 0.0238015 5.20843 0.0546856 5.99999C0.0546856 6.53043 0.265399 7.03914 0.640472 7.41421C1.01554 7.78928 1.52425 7.99999 2.05469 7.99999C2.58512 7.99999 3.09383 7.78928 3.4689 7.41421C3.84397 7.03914 4.05469 6.53043 4.05469 5.99999Z" fill="#EE5A52"></path>
      <path d="M18.04 16.5053V11.3333C18.04 10.8029 17.8293 10.2942 17.4543 9.91911C17.0792 9.54404 16.5705 9.33333 16.04 9.33333C15.5096 9.33333 15.0009 9.54404 14.6258 9.91911C14.2508 10.2942 14.04 10.8029 14.04 11.3333V17.0573C14.0402 17.7645 14.3212 18.4427 14.8214 18.9427L17.212 21.3333C17.5892 21.6976 18.0944 21.8992 18.6188 21.8947C19.1432 21.8901 19.6449 21.6798 20.0157 21.309C20.3865 20.9381 20.5968 20.4365 20.6014 19.9121C20.6059 19.3877 20.4044 18.8825 20.04 18.5053L18.04 16.5053Z" fill="#EE5A52"></path>
    </g>
    <defs>
      <clipPath id="clip0_9_12">
        <rect width="32" height="32" fill="white"></rect>
      </clipPath>
    </defs>
  </symbol>
  <symbol fill="none" xmlns="http://www.w3.org/2000/svg" viewBox="0 0 27 32" id="delete">
    <path d="M25.3333 5.33331H21.2C20.5621 2.23144 17.8334 0.004 14.6666 0H11.9999C8.83312 0.004 6.1045 2.23144 5.46662 5.33331H1.33331C0.596938 5.33331 0 5.93025 0 6.66663C0 7.403 0.596938 8 1.33331 8H2.66663V25.3333C2.67106 29.0134 5.65325 31.9956 9.33331 32H17.3333C21.0134 31.9956 23.9956 29.0134 24 25.3333V8H25.3333C26.0697 8 26.6666 7.40306 26.6666 6.66669C26.6666 5.93031 26.0697 5.33331 25.3333 5.33331ZM12 22.6667C12 23.4031 11.4031 24 10.6667 24C9.93025 24 9.33331 23.4031 9.33331 22.6667V14.6667C9.33331 13.9303 9.93025 13.3334 10.6666 13.3334C11.403 13.3334 11.9999 13.9303 11.9999 14.6667V22.6667H12ZM17.3333 22.6667C17.3333 23.4031 16.7364 24 16 24C15.2636 24 14.6667 23.4031 14.6667 22.6667V14.6667C14.6667 13.9303 15.2636 13.3334 16 13.3334C16.7364 13.3334 17.3333 13.9303 17.3333 14.6667V22.6667ZM8.228 5.33331C8.79513 3.73637 10.3054 2.66869 12 2.66663H14.6667C16.3613 2.66869 17.8716 3.73637 18.4387 5.33331H8.228Z" fill="#F44336"></path>
  </symbol>
  <symbol fill="none" xmlns="http://www.w3.org/2000/svg" viewBox="0 0 32 32" id="easy">
    <g clip-path="url(#clip0_9_17)">
      <path d="M16 0C12.8355 0 9.74207 0.938384 7.11088 2.69649C4.4797 4.45459 2.42894 6.95345 1.21793 9.87707C0.00693258 12.8007 -0.309921 16.0178 0.307443 19.1214C0.924806 22.2251 2.44866 25.0761 4.6863 27.3137C6.92394 29.5514 9.77487 31.0752 12.8786 31.6926C15.9823 32.3099 19.1993 31.9931 22.1229 30.7821C25.0466 29.5711 27.5454 27.5203 29.3035 24.8891C31.0616 22.2579 32 19.1645 32 16C31.9954 11.7579 30.3082 7.69095 27.3087 4.69136C24.3091 1.69177 20.2421 0.00458811 16 0Z" fill="#4CAF50"></path>
    </g>
    <defs>
      <clipPath id="clip0_9_17">
        <rect width="32" height="32" fill="white"></rect>
      </clipPath>
    </defs>
  </symbol>
  <symbol fill="none" xmlns="http://www.w3.org/2000/svg" viewBox="0 0 32 32" id="edit">
    <path d="M30.6494 7.26932C30.6121 7.03332 30.2334 4.91332 28.6974 3.36532C27.1547 1.85598 25.0267 1.48265 24.7894 1.44532C24.4734 1.39332 24.1507 1.45998 23.8801 1.62798C23.7854 1.68665 22.3947 2.55732 19.6494 4.87865C21.0614 5.37732 22.8867 6.24265 24.3667 7.69065C25.8521 9.14398 26.7401 10.932 27.2494 12.3186C29.5427 9.63865 30.4054 8.28132 30.4627 8.18798C30.6334 7.91465 30.7001 7.58798 30.6494 7.26932Z" fill="#5568D3"></path>
    <path d="M17.2668 6.96399C15.8361 8.25466 14.1708 9.82266 12.2641 11.716C4.18011 19.7427 2.06011 22.952 1.97344 23.084C1.85211 23.2707 1.77878 23.4853 1.76144 23.7067L1.33611 29.1347C1.30678 29.524 1.44678 29.9053 1.72278 30.1813C1.97344 30.432 2.31344 30.572 2.66677 30.572C2.70011 30.572 2.73477 30.572 2.76944 30.568L8.23744 30.1467C8.45744 30.1293 8.66944 30.0587 8.85477 29.94C8.98811 29.8547 12.2188 27.7493 20.3014 19.724C22.2508 17.788 23.8588 16.1027 25.1748 14.6613C24.9734 13.796 24.2708 11.3267 22.5014 9.59732C20.7068 7.84132 18.1254 7.15332 17.2668 6.96399Z" fill="#5568D3"></path>
  </symbol>
  <symbol fill="none" xmlns="http://www.w3.org/2000/svg" viewBox="0 0 32 32" id="hard">
    <g clip-path="url(#clip0_9_20)">
      <path d="M16 0C12.8355 0 9.74207 0.938384 7.11088 2.69649C4.4797 4.45459 2.42894 6.95345 1.21793 9.87707C0.00693258 12.8007 -0.309921 16.0178 0.307443 19.1214C0.924806 22.2251 2.44866 25.0761 4.6863 27.3137C6.92394 29.5514 9.77487 31.0752 12.8786 31.6926C15.9823 32.3099 19.1993 31.9931 22.1229 30.7821C25.0466 29.5711 27.5454 27.5203 29.3035 24.8891C31.0616 22.2579 32 19.1645 32 16C31.9954 11.7579 30.3082 7.69095 27.3087 4.69136C24.3091 1.69177 20.2421 0.00458811 16 0Z" fill="#F44336"></path>
    </g>
    <defs>
      <clipPath id="clip0_9_20">
        <rect width="32" height="32" fill="white"></rect>
      </clipPath>
    </defs>
  </symbol>
  <symbol fill="none" xmlns="http://www.w3.org/2000/svg" viewBox="0 0 32 29" id="heart">
    <path d="M23.3334 0C21.832 0.0233532 20.3634 0.442471 19.0758 1.21503C17.7882 1.98759 16.7273 3.08623 16.0001 4.4C15.273 3.08623 14.212 1.98759 12.9244 1.21503C11.6368 0.442471 10.1682 0.0233532 8.66677 0C6.27336 0.103988 4.01838 1.15101 2.39448 2.91231C0.770587 4.67361 -0.0902269 7.00603 0.000107148 9.4C0.000107148 15.4627 6.38144 22.084 11.7334 26.5733C12.9284 27.5775 14.4392 28.128 16.0001 28.128C17.561 28.128 19.0718 27.5775 20.2668 26.5733C25.6188 22.084 32.0001 15.4627 32.0001 9.4C32.0904 7.00603 31.2296 4.67361 29.6057 2.91231C27.9818 1.15101 25.7269 0.103988 23.3334 0Z" fill="#F44336"></path>
  </symbol>
  <symbol fill="none" xmlns="http://www.w3.org/2000/svg" viewBox="0 0 32 29" id="heart-neutral">
    <path d="M23.3334 0C21.832 0.0233532 20.3634 0.442471 19.0758 1.21503C17.7882 1.98759 16.7273 3.08623 16.0001 4.4C15.273 3.08623 14.212 1.98759 12.9244 1.21503C11.6368 0.442471 10.1682 0.0233532 8.66677 0C6.27336 0.103988 4.01838 1.15101 2.39448 2.91231C0.770587 4.67361 -0.0902269 7.00603 0.000107148 9.4C0.000107148 15.4627 6.38144 22.084 11.7334 26.5733C12.9284 27.5775 14.4392 28.128 16.0001 28.128C17.561 28.128 19.0718 27.5775 20.2668 26.5733C25.6188 22.084 32.0001 15.4627 32.0001 9.4C32.0904 7.00603 31.2296 4.67361 29.6057 2.91231C27.9818 1.15101 25.7269 0.103988 23.3334 0ZM18.5534 24.5333C17.8388 25.1352 16.9344 25.4652 16.0001 25.4652C15.0658 25.4652 14.1615 25.1352 13.4468 24.5333C6.59611 18.7853 2.66677 13.2707 2.66677 9.4C2.57563 7.71295 3.15526 6.05831 4.27926 4.79693C5.40325 3.53556 6.98042 2.7698 8.66677 2.66667C10.3531 2.7698 11.9303 3.53556 13.0543 4.79693C14.1783 6.05831 14.7579 7.71295 14.6668 9.4C14.6668 9.75362 14.8072 10.0928 15.0573 10.3428C15.3073 10.5929 15.6465 10.7333 16.0001 10.7333C16.3537 10.7333 16.6929 10.5929 16.9429 10.3428C17.193 10.0928 17.3334 9.75362 17.3334 9.4C17.2423 7.71295 17.8219 6.05831 18.9459 4.79693C20.0699 3.53556 21.6471 2.7698 23.3334 2.66667C25.0198 2.7698 26.597 3.53556 27.721 4.79693C28.845 6.05831 29.4246 7.71295 29.3334 9.4C29.3334 13.2707 25.4041 18.7853 18.5534 24.528V24.5333Z" fill="#F44336"></path>
  </symbol>
  <symbol fill="none" xmlns="http://www.w3.org/2000/svg" viewBox="0 0 32 32" id="medium">
    <g clip-path="url(#clip0_9_10)">
      <path d="M16 0C12.8355 0 9.74207 0.938384 7.11088 2.69649C4.4797 4.45459 2.42894 6.95345 1.21793 9.87707C0.00693258 12.8007 -0.309921 16.0178 0.307443 19.1214C0.924806 22.2251 2.44866 25.0761 4.6863 27.3137C6.92394 29.5514 9.77487 31.0752 12.8786 31.6926C15.9823 32.3099 19.1993 31.9931 22.1229 30.7821C25.0466 29.5711 27.5454 27.5203 29.3035 24.8891C31.0616 22.2579 32 19.1645 32 16C31.9954 11.7579 30.3082 7.69095 27.3087 4.69136C24.3091 1.69177 20.2421 0.00458811 16 0Z" fill="#FFD700"></path>
    </g>
    <defs>
      <clipPath id="clip0_9_10">
        <rect width="32" height="32" fill="white"></rect>
      </clipPath>
    </defs>
  </symbol>
  <symbol fill="none" xmlns="http://www.w3.org/2000/svg" viewBox="0 0 32 32" id="scales">
    <g clip-path="url(#clip0_9_6)">
      <path d="M26.9467 2.66667H17.3333V0H14.6667V2.66667H5.05333L0 17.1067V18C0 21.308 2.692 24 6 24C9.308 24 12 21.308 12 18V17.1067L7.87867 5.33333H14.6667V29.3333H5.33333V32H26.6667V29.3333H17.3333V5.33333H24.1213L20 17.1067V18C20 21.308 22.692 24 26 24C29.308 24 32 21.308 32 18V17.1067L26.9467 2.66667ZM8.788 16H3.212L6 8.036L8.788 16ZM26 8.036L28.788 16H23.2133L26 8.036Z" fill="#5568D3"></path>
    </g>
    <defs>
      <clipPath id="clip0_9_6">
        <rect width="32" height="32" fill="white"></rect>
      </clipPath>
    </defs>
  </symbol>
  <symbol fill="none" xmlns="http://www.w3.org/2000/svg" viewBox="0 0 32 31" id="star">
    <path d="M1.75787 16.28L6.50454 19.7467L4.70187 25.3294C4.41055 26.1952 4.40686 27.132 4.69135 28.0001C4.97584 28.8683 5.53327 29.6212 6.28054 30.1467C7.01501 30.6891 7.90506 30.9796 8.81808 30.975C9.73109 30.9705 10.6182 30.671 11.3472 30.1214L15.9885 26.7054L20.6312 30.1174C21.3643 30.6566 22.2496 30.9495 23.1597 30.954C24.0698 30.9584 24.9579 30.6741 25.6962 30.142C26.4346 29.6099 26.9852 28.8574 27.2689 27.9926C27.5526 27.1279 27.5548 26.1954 27.2752 25.3294L25.4725 19.7467L30.2192 16.28C30.9514 15.7447 31.4957 14.9917 31.7743 14.1285C32.053 13.2654 32.0517 12.3363 31.7708 11.4739C31.4898 10.6115 30.9435 9.85992 30.2099 9.32656C29.4763 8.7932 28.5929 8.50531 27.6859 8.50402H21.8552L20.0859 2.98935C19.8076 2.12129 19.2609 1.36404 18.5245 0.826771C17.7881 0.289506 16.9001 0 15.9885 0C15.077 0 14.189 0.289506 13.4526 0.826771C12.7162 1.36404 12.1694 2.12129 11.8912 2.98935L10.1219 8.50402H4.29654C3.38953 8.50531 2.50613 8.7932 1.77251 9.32656C1.0389 9.85992 0.492593 10.6115 0.211634 11.4739C-0.0693255 12.3363 -0.070569 13.2654 0.208081 14.1285C0.48673 14.9917 1.03102 15.7447 1.7632 16.28H1.75787Z" fill="#FFD700"></path>
  </symbol>
</svg>