<svg width="32" height="32" viewBox="0 0 32 32" fill="none" xmlns="http://www.w3.org/2000/svg">
<path d="M31.416 28.5937L25.222 22.3975C29.8567 16.2045 28.5929 7.42712 22.3994 2.79283C16.2058 -1.84147 7.42775 -0.577851 2.79306 5.61519C-1.84163 11.8082 -0.577899 20.5856 5.61566 25.2199C10.5908 28.9425 17.4241 28.9425 22.3994 25.2199L28.596 31.416C29.3748 32.1947 30.6373 32.1947 31.416 31.416C32.1947 30.6374 32.1947 29.3749 31.416 28.5963L31.416 28.5937ZM14.0592 24.0239C8.55462 24.0239 4.09236 19.5621 4.09236 14.058C4.09236 8.5539 8.55462 4.09201 14.0592 4.09201C19.5637 4.09201 24.026 8.5539 24.026 14.058C24.0201 19.5596 19.5613 24.0181 14.0592 24.0239Z" fill="#333333"/>
</svg>
